<?xml version="1.0" encoding="UTF-8" standalone="no"?>
<svg
   xmlns:dc="http://purl.org/dc/elements/1.1/"
   xmlns:cc="http://creativecommons.org/ns#"
   xmlns:rdf="http://www.w3.org/1999/02/22-rdf-syntax-ns#"
   xmlns:svg="http://www.w3.org/2000/svg"
   xmlns="http://www.w3.org/2000/svg"
   xmlns:sodipodi="http://sodipodi.sourceforge.net/DTD/sodipodi-0.dtd"
   xmlns:inkscape="http://www.inkscape.org/namespaces/inkscape"
   viewBox="0 0 32 26"
   enable-background="new 0 0 50 50"
   id="svg2"
   version="1.1"
   inkscape:version="0.48.4 r9939"
   width="100%"
   height="100%"
   sodipodi:docname="Ei-sc-twitter.svg">
  <title
     id="title2987">Ei-sc-twitter</title>
  <metadata
     id="metadata10">
    <rdf:RDF>
      <cc:Work
         rdf:about="">
        <dc:format>image/svg+xml</dc:format>
        <dc:type
           rdf:resource="http://purl.org/dc/dcmitype/StillImage" />
        <dc:title>Ei-sc-twitter</dc:title>
      </cc:Work>
    </rdf:RDF>
  </metadata>
  <defs
     id="defs8" />
  <sodipodi:namedview
     pagecolor="#ffffff"
     bordercolor="#666666"
     borderopacity="1"
     objecttolerance="10"
     gridtolerance="10"
     guidetolerance="10"
     inkscape:pageopacity="0"
     inkscape:pageshadow="2"
     inkscape:window-width="1600"
     inkscape:window-height="844"
     id="namedview6"
     showgrid="false"
     inkscape:zoom="4.72"
     inkscape:cx="21.292373"
     inkscape:cy="25"
     inkscape:window-x="-4"
     inkscape:window-y="-4"
     inkscape:window-maximized="1"
     inkscape:current-layer="svg2" />
  <path id="twitter"
     d="m 30.937288,4.028814 c -1.1,0.5 -2.2,0.8 -3.5,1 1.2,-0.8 2.2,-1.9 2.7,-3.3 -1.2,0.7 -2.5,1.2 -3.8,1.5 -1.1,-1.2 -2.7,-1.9 -4.4,-1.9 -3.3,0 -6.1,2.7 -6.1,6.1 0,0.5 0.1,0.9 0.2,1.4 -5,-0.2 -9.4999999,-2.7 -12.4999999,-6.3 -0.5,0.7 -0.8,1.7 -0.8,2.8 0,2.1 1.1,4 2.7,5 -1,0 -1.9,-0.3 -2.7,-0.8 v 0.1 c 0,2.9 2.1,5.4 4.9,5.9 -0.5,0.1 -1,0.2 -1.6,0.2 -0.4,0 -0.8,0 -1.1,-0.1 0.8,2.4 3,4.2 5.6999999,4.2 -2.0999999,1.6 -4.6999999,2.6 -7.4999999,2.6 -0.5,0 -1,0 -1.4,-0.1 2.4,1.9 5.6,2.9 8.9999999,2.9 11.1,0 17.2,-9.2 17.2,-17.2 v -0.8 c 1.2,-0.9 2.2,-1.9 3,-3.2 z"
     id="path4"
     inkscape:connector-curvature="0" />
</svg>
